<svg version="1.1" id="Layer_1" xmlns="http://www.w3.org/2000/svg" xmlns:xlink="http://www.w3.org/1999/xlink" x="0px" y="0px"
	 width="100%" viewBox="0 0 3708 740" enable-background="new 0 0 3708 740" xml:space="preserve">
<path fill="#966CA9" opacity="1.000000" stroke="none" 
	d="
M2794.000000,1.000008 
	C2807.020752,1.000000 2820.041748,1.000000 2833.698730,1.326267 
	C2848.686279,5.950205 2859.582031,14.905890 2867.976318,27.026163 
	C2880.951416,45.760323 2887.378662,66.987541 2888.756836,89.367432 
	C2890.212646,113.005196 2889.577637,136.793106 2884.792480,160.121765 
	C2879.096191,187.892731 2869.913818,214.470642 2855.973389,239.335571 
	C2841.369385,265.383057 2823.391357,288.794830 2802.497803,310.061798 
	C2797.354004,315.297546 2792.580811,320.897156 2787.937012,326.000000 
	C2788.796875,326.000000 2790.602295,326.018402 2792.407227,325.997253 
	C2820.517578,325.668091 2848.630371,324.957611 2876.736816,325.161377 
	C2890.535645,325.261383 2897.299561,328.917999 2899.702881,341.216339 
	C2900.998535,347.847778 2900.600342,354.990265 2899.911133,361.795319 
	C2897.960938,381.052551 2886.121826,392.709015 2869.134521,400.050049 
	C2851.418701,407.705811 2832.651611,409.685791 2813.649170,409.958252 
	C2779.874268,410.442474 2746.095947,410.669006 2712.319092,411.017365 
	C2711.366211,411.027191 2710.414551,411.195557 2709.515381,411.284698 
	C2709.000488,422.349762 2708.163330,433.080841 2708.066895,443.818542 
	C2707.822998,471.017151 2707.821533,498.201447 2710.893555,525.315308 
	C2713.044434,544.299622 2715.967285,563.082214 2723.141846,580.855164 
	C2729.816406,597.390320 2740.457764,610.821167 2756.795898,618.902527 
	C2768.576172,624.729309 2781.173340,626.393005 2794.260254,626.084045 
	C2812.668701,625.649475 2829.552002,620.707336 2844.924316,610.606934 
	C2863.085449,598.674194 2877.674316,582.746582 2892.856201,567.499023 
	C2894.016357,566.333801 2894.754883,564.339050 2894.917480,562.655518 
	C2896.056396,550.840576 2896.797852,538.985474 2898.044678,527.183167 
	C2899.530029,513.124512 2900.682861,498.974731 2903.241455,485.097015 
	C2908.378418,457.233429 2913.764160,429.384827 2920.245605,401.811737 
	C2924.014404,385.778259 2929.458740,370.039490 2935.416504,354.658997 
	C2938.666748,346.267822 2944.904785,339.476044 2954.014404,335.839783 
	C2971.002197,329.058990 2988.464600,328.577118 3005.911133,332.277344 
	C3018.828125,335.016876 3028.916992,341.884216 3027.954590,359.697418 
	C3027.572998,366.762207 3027.021973,373.851013 3025.960205,380.839539 
	C3023.101562,399.651550 3020.509521,418.533051 3016.751709,437.173309 
	C3009.429688,473.493927 3001.339844,509.646820 2996.848389,546.495178 
	C2994.674316,564.330383 2993.489502,582.095886 2997.132568,599.769043 
	C2998.927490,608.476440 3001.795410,617.039795 3010.517090,621.808777 
	C3021.565430,627.850037 3031.625732,624.202942 3041.111084,618.253479 
	C3057.861084,607.747681 3070.606445,592.804688 3083.874512,578.492004 
	C3084.630859,577.676270 3084.914551,576.076355 3084.829590,574.883484 
	C3084.314941,567.665039 3083.027344,560.450073 3083.133057,553.250671 
	C3083.317627,540.690857 3084.225586,528.136902 3085.011230,515.591858 
	C3086.063232,498.794067 3089.834473,482.507751 3094.816406,466.492065 
	C3101.752686,444.193054 3112.391602,423.730286 3125.831787,404.682220 
	C3138.509766,386.714111 3153.738037,371.308746 3171.799561,358.716797 
	C3207.609131,333.751373 3246.974609,323.402954 3290.221924,331.128265 
	C3316.260742,335.779663 3335.443848,350.748322 3347.960449,374.008820 
	C3357.035156,390.872070 3359.556641,409.103516 3359.095215,428.067139 
	C3358.638672,446.840485 3355.031494,464.605865 3345.048828,480.738220 
	C3339.141113,490.284882 3331.903320,498.309631 3321.041260,502.558014 
	C3309.432373,507.098541 3297.777832,506.721954 3286.445068,502.558411 
	C3277.075439,499.115997 3270.378906,492.179352 3270.204590,481.676575 
	C3270.072021,473.694214 3271.174316,465.555725 3272.812500,457.713379 
	C3274.935547,447.549774 3278.333252,437.565796 3276.859131,427.047546 
	C3276.340576,423.349762 3274.883545,419.370483 3272.671631,416.401611 
	C3266.421631,408.012482 3257.269287,408.859436 3248.662598,410.905762 
	C3235.830566,413.956787 3226.303711,422.045166 3218.051514,432.244934 
	C3205.322266,447.979156 3198.093750,466.193970 3193.190430,485.381592 
	C3188.971924,501.889954 3187.658691,518.824463 3187.888916,535.933960 
	C3188.108398,552.231628 3190.247314,568.068542 3195.992188,583.349182 
	C3199.636719,593.042725 3205.016357,601.795837 3212.514648,608.835754 
	C3226.061035,621.554199 3242.961670,626.602112 3261.055664,627.932251 
	C3275.682129,629.007446 3290.083740,626.991699 3303.984863,622.445496 
	C3330.599121,613.741516 3353.968506,599.263428 3375.183350,581.188110 
	C3376.532715,580.038574 3377.690430,578.010559 3377.881348,576.275024 
	C3378.513184,570.531067 3378.381836,564.701172 3379.052490,558.963867 
	C3380.539551,546.244812 3381.601562,533.412415 3384.149902,520.893555 
	C3390.801514,488.215881 3403.845215,458.053772 3421.984131,430.098511 
	C3434.980957,410.068665 3450.048828,391.871460 3468.177002,376.147278 
	C3481.296143,364.768005 3495.147949,354.522583 3510.400879,346.348541 
	C3537.574951,331.785706 3566.493408,324.058075 3597.585938,324.916809 
	C3614.480225,325.383392 3620.745850,329.573303 3626.043213,345.765930 
	C3627.177979,349.234863 3628.384766,352.680206 3629.378906,355.607605 
	C3635.598389,354.944977 3640.971436,353.940765 3646.352783,353.890991 
	C3656.875977,353.793701 3667.655518,352.864319 3677.873047,354.750427 
	C3695.072998,357.925476 3704.550293,370.835205 3703.848389,388.594757 
	C3703.197754,405.054260 3701.999268,421.563599 3699.746582,437.872040 
	C3696.066650,464.510986 3690.908936,490.945068 3687.187012,517.579163 
	C3684.454834,537.131836 3682.660889,556.838013 3681.125977,576.528564 
	C3679.891113,592.371887 3679.610840,608.292053 3679.015869,624.182251 
	C3678.358643,641.728088 3680.701660,659.410278 3676.951416,676.809082 
	C3674.033936,690.344604 3667.473633,701.275574 3653.859863,706.582886 
	C3637.538086,712.945801 3620.818604,713.214111 3603.935059,709.426147 
	C3595.772949,707.594910 3588.099365,704.121460 3582.601807,697.827148 
	C3573.596191,687.516541 3570.003174,674.965210 3570.000244,661.354126 
	C3569.999268,656.993774 3570.000000,652.633423 3570.000000,648.273071 
	C3554.132568,683.908142 3531.662354,709.908142 3489.359619,712.232910 
	C3448.560791,714.474915 3419.381592,696.487732 3398.083252,662.793335 
	C3396.747070,663.914551 3395.701904,664.957642 3394.502197,665.773254 
	C3377.891846,677.065186 3360.501221,686.836853 3341.935059,694.684448 
	C3317.370605,705.067261 3291.985596,712.312012 3265.425781,713.703979 
	C3249.122314,714.558472 3232.573486,713.496216 3216.316895,711.671326 
	C3201.195801,709.973877 3186.558105,705.489502 3172.447510,699.320679 
	C3153.754639,691.148560 3137.341553,680.071106 3124.002197,664.551392 
	C3120.990723,661.047485 3117.776855,657.717468 3114.669922,654.322144 
	C3110.408936,658.080505 3106.089844,661.663330 3102.026855,665.516418 
	C3090.275635,676.660583 3077.508789,686.411438 3063.692383,694.892578 
	C3036.230225,711.750488 3007.032227,719.815735 2974.682129,714.055115 
	C2951.453857,709.918884 2932.777100,698.801453 2919.706299,679.033508 
	C2915.564209,672.769409 2912.400879,665.858093 2908.982910,659.596863 
	C2899.058105,667.476196 2889.345947,675.364502 2879.447266,683.011719 
	C2853.074463,703.386414 2822.889648,714.317871 2789.945801,716.742737 
	C2770.514893,718.172974 2750.934814,717.465454 2731.678467,713.032898 
	C2695.541992,704.714783 2666.560059,685.888123 2646.340820,654.640076 
	C2639.163086,643.547241 2633.516113,631.464294 2626.496826,618.599060 
	C2625.552002,619.998657 2624.597656,621.753113 2623.327881,623.238220 
	C2615.182373,632.766296 2607.621094,642.914307 2598.627686,651.570068 
	C2583.873291,665.770874 2568.823486,679.820129 2552.715088,692.420654 
	C2530.887939,709.494629 2506.326416,720.488098 2477.626465,719.014221 
	C2463.628174,718.295349 2450.893555,713.778503 2439.480713,705.870728 
	C2423.380859,694.715637 2411.481934,679.960022 2403.516602,662.046387 
	C2402.162354,659.000732 2400.705078,656.001099 2399.075195,652.509033 
	C2388.472412,669.732361 2375.941650,684.285950 2360.875977,696.641907 
	C2350.190674,705.405212 2338.162109,711.807617 2325.043457,715.804443 
	C2308.373291,720.882996 2291.229492,721.184265 2274.014648,719.022278 
	C2252.735596,716.349854 2234.208496,707.695374 2219.163086,692.454834 
	C2211.921143,685.118958 2205.791260,676.684937 2199.154785,668.744507 
	C2196.818115,670.670288 2193.994873,672.929443 2191.245117,675.274719 
	C2175.943848,688.324463 2159.916992,700.178833 2141.337891,708.390076 
	C2122.424561,716.748962 2102.598633,720.927612 2082.143799,721.815918 
	C2072.641846,722.228516 2062.968994,721.255493 2053.523193,719.881958 
	C2035.041504,717.194397 2019.483643,708.623047 2008.337646,693.491821 
	C1996.570068,677.516846 1991.804443,658.930115 1991.077393,639.357971 
	C1990.474854,623.138611 1990.980469,606.941223 1993.932373,590.876282 
	C1996.776245,575.399048 1999.208496,559.846313 2001.836548,544.329285 
	C2004.219482,530.260681 2006.777466,516.219421 2008.950195,502.118652 
	C2010.001587,495.295471 2010.431030,488.370087 2010.972290,481.477631 
	C2011.209961,478.451691 2011.355469,475.349274 2010.967163,472.356232 
	C2009.725708,462.785950 2004.004272,460.259857 1995.880737,465.699341 
	C1986.481567,471.993195 1980.213013,481.195587 1973.965698,490.296295 
	C1959.308472,511.648163 1947.775757,534.682251 1937.200562,558.287659 
	C1921.853760,592.544006 1910.625732,628.084351 1901.810791,664.513000 
	C1899.125977,675.608154 1895.361694,686.581604 1890.822144,697.060791 
	C1879.636963,722.881470 1856.944214,725.565979 1834.857056,722.173279 
	C1814.295044,719.014832 1804.835815,703.242920 1799.130737,685.268494 
	C1789.910034,656.217712 1788.501099,626.055969 1788.024292,595.852112 
	C1787.869751,586.059204 1788.000000,576.261841 1788.000000,565.864441 
	C1784.045410,566.412048 1780.694214,566.921021 1777.331421,567.334045 
	C1761.836182,569.237427 1746.353638,571.270081 1730.827515,572.878174 
	C1727.413818,573.231812 1725.729492,573.658386 1724.842773,577.515503 
	C1717.184326,610.824646 1703.442749,641.412537 1680.917236,667.286011 
	C1663.667603,687.099426 1643.412231,703.311584 1618.794678,713.778870 
	C1591.807617,725.253662 1563.791870,727.009277 1535.289185,723.766968 
	C1517.395508,721.731506 1500.093018,716.367920 1484.813843,706.712280 
	C1473.611206,699.632568 1462.670776,691.607239 1453.277832,682.319946 
	C1439.542603,668.738892 1429.186523,652.451721 1421.734131,634.438232 
	C1415.184814,618.607727 1410.143921,602.400574 1407.968872,585.357727 
	C1407.357544,580.567871 1406.519653,575.806824 1405.781372,571.005432 
	C1404.014038,571.005432 1403.009399,570.922791 1402.021851,571.017883 
	C1388.254517,572.343201 1374.479126,573.601501 1360.740479,575.179260 
	C1359.376221,575.335938 1357.458496,577.291626 1357.116943,578.726318 
	C1353.116089,595.535645 1347.747437,611.872925 1340.179199,627.402527 
	C1329.186523,649.959351 1314.885376,670.027832 1295.905273,686.758118 
	C1282.836304,698.277893 1268.717651,707.856140 1252.869873,715.110840 
	C1234.461182,723.537903 1215.017090,727.375000 1195.043579,727.772034 
	C1183.245361,728.006592 1171.323853,726.516968 1159.599609,724.822205 
	C1146.234375,722.890259 1133.538452,718.288391 1121.565552,711.999329 
	C1103.810303,702.673035 1088.653931,690.111816 1076.029419,674.518372 
	C1073.704346,671.646423 1071.454102,668.714050 1069.102173,665.724426 
	C1052.706421,680.871765 1036.086670,694.724304 1017.065308,705.641479 
	C994.305298,718.704407 970.011536,727.056030 943.984253,728.736816 
	C922.413025,730.129761 900.830261,729.204468 879.582031,723.210449 
	C849.621338,714.758728 825.877136,698.070312 807.975586,672.840881 
	C789.325195,646.556091 782.618774,616.511230 781.112610,585.009827 
	C780.702637,576.434998 781.379089,567.772156 782.058777,559.189453 
	C783.137390,545.568787 784.219238,531.924500 786.060486,518.393738 
	C788.714783,498.888275 791.404175,479.347473 795.229980,460.049988 
	C803.130249,420.200623 811.808289,380.505676 820.133728,340.740387 
	C826.813721,308.834259 833.544556,276.938263 840.061523,244.998749 
	C843.912781,226.124344 846.344666,207.138672 845.166199,187.731125 
	C844.609619,178.565674 843.258179,169.706497 839.878784,161.288589 
	C835.794495,151.114502 828.680542,143.490509 818.062073,140.013214 
	C806.896851,136.356903 795.674561,137.279327 784.547852,140.746475 
	C767.761108,145.977341 753.781555,155.965836 741.728027,168.153183 
	C730.639648,179.364670 720.363342,191.583740 711.104065,204.355576 
	C693.945129,228.023849 681.523743,254.431442 670.423279,281.351898 
	C654.475708,320.027252 640.819641,359.542145 630.544800,400.120972 
	C624.194702,425.199707 618.540283,450.462555 613.011963,475.738647 
	C609.022400,493.979126 605.557373,512.341736 602.227356,530.716675 
	C599.536072,545.567322 597.262024,560.498108 595.051208,575.430054 
	C593.150269,588.268433 591.633850,601.163330 589.886597,614.024963 
	C587.963867,628.178589 586.393311,642.397827 583.890869,656.449890 
	C581.397339,670.452332 578.881653,684.576355 574.667297,698.115356 
	C569.236328,715.562805 556.964111,726.407837 538.561890,730.116150 
	C526.046570,732.638184 513.510010,732.920410 501.123077,730.740967 
	C489.559418,728.706482 479.189056,723.848145 473.134705,712.679138 
	C467.254364,701.831116 465.571930,689.953369 465.110901,677.982788 
	C464.300934,656.950806 465.886444,636.004150 468.961029,615.173218 
	C471.333527,599.099426 473.490967,582.993347 475.937561,566.931091 
	C478.160767,552.335266 480.572968,537.767029 483.033600,523.208923 
	C485.738892,507.203339 488.511932,491.208191 491.407501,475.236115 
	C494.506165,458.143555 497.928589,441.108948 500.940857,424.001740 
	C504.183319,405.587189 507.108887,387.116821 510.181763,368.672333 
	C513.442444,349.100922 517.010010,329.574829 519.894714,309.948273 
	C522.642273,291.253998 525.095642,272.495728 526.917480,253.691895 
	C528.763489,234.638657 529.834473,215.504196 530.936951,196.387543 
	C531.530884,186.087921 529.529358,176.078278 525.982300,166.390671 
	C520.268250,150.784821 508.776550,142.035263 492.647461,140.160309 
	C476.347595,138.265503 460.838470,142.026245 446.439484,149.906448 
	C422.538727,162.986725 403.632782,181.600693 387.823730,203.520874 
	C370.225433,227.921921 357.021118,254.709381 345.271729,282.294556 
	C330.538971,316.883972 318.052307,352.233856 307.713074,388.394653 
	C296.081421,429.075562 286.293243,470.160583 278.951782,511.820160 
	C273.801392,541.046570 268.770355,570.296265 263.999573,599.586609 
	C260.728241,619.670837 257.751617,639.810730 255.101303,659.985901 
	C253.065277,675.484924 250.367874,690.788269 244.964996,705.492554 
	C240.977036,716.346130 235.043777,725.802063 223.415466,729.724976 
	C205.757004,735.682373 187.803146,735.831726 169.857788,731.013367 
	C157.168274,727.606384 148.067047,720.145081 143.668549,707.321472 
	C138.656952,692.710510 138.497437,677.551575 138.132065,662.416199 
	C138.016968,657.648926 138.698975,652.863403 138.997345,648.085022 
	C139.368362,642.143311 139.477692,636.173340 140.134018,630.263855 
	C141.239853,620.306946 142.701126,610.389771 143.987579,600.452637 
	C145.401367,589.531860 146.603455,578.580139 148.230042,567.691467 
	C150.313461,553.744446 152.717041,539.845093 155.004166,525.928711 
	C157.211533,512.497681 159.491211,499.078400 161.656174,485.640564 
	C163.822433,472.194794 165.938477,458.740356 167.979172,445.274994 
	C169.848602,432.939636 171.576294,420.582886 173.387909,408.238708 
	C175.580322,393.299744 177.854843,378.372589 179.980316,363.424194 
	C181.483780,352.850311 182.742599,342.241821 184.211838,331.662842 
	C186.085999,318.168427 188.252228,304.711853 189.939682,291.194946 
	C191.550217,278.294098 192.869644,265.351166 194.023926,252.400604 
	C195.502655,235.809723 196.698456,219.193497 197.985306,202.585800 
	C198.126633,200.762115 197.877182,198.896500 198.128342,197.094849 
	C199.926331,184.197708 200.107269,171.200760 196.633667,158.701263 
	C192.239532,142.889343 182.294998,138.056885 169.207230,139.247910 
	C154.826675,140.556564 142.217224,147.352661 130.404831,155.214066 
	C115.824127,164.917831 102.292885,175.968979 91.002220,189.506500 
	C78.240814,204.807434 65.357437,220.012405 52.889290,235.549759 
	C46.479576,243.537308 32.906921,248.552155 23.117821,245.028610 
	C12.119587,241.069855 6.575535,232.107483 2.993171,221.586777 
	C2.559327,220.312683 1.675352,219.191864 0.999999,218.000000 
	C1.000000,217.250000 1.000000,216.500000 1.358974,215.144791 
	C1.478632,210.359726 1.239316,206.179855 1.000000,202.000000 
	C1.000000,201.250000 1.000000,200.500000 1.354411,199.230118 
	C2.124673,198.019928 2.677276,197.376999 2.935274,196.632019 
	C5.604469,188.924591 7.334107,180.741882 11.025113,173.565781 
	C23.010054,150.264465 39.787754,130.328110 57.473869,111.242538 
	C65.328781,102.766090 73.903648,94.769196 83.053162,87.725594 
	C95.644997,78.031952 108.558891,68.525024 122.294945,60.602882 
	C143.638992,48.292908 166.619476,40.111019 191.498184,37.854832 
	C205.252808,36.607464 218.888092,36.281013 232.457764,39.049191 
	C258.411438,44.343666 277.112366,59.265404 288.851624,82.748413 
	C298.454346,101.957619 301.641296,122.924263 301.702118,143.990509 
	C301.758209,163.421585 299.614197,182.887146 297.852509,202.284225 
	C296.874939,213.047684 294.673004,223.698563 293.066681,234.406738 
	C291.733978,243.291061 290.465240,252.184982 289.168213,261.074646 
	C291.505859,256.757202 293.260986,252.241669 294.964783,247.706848 
	C306.822601,216.146713 320.091522,185.245697 336.967224,155.970306 
	C352.352966,129.279587 369.846375,104.374763 393.339447,83.959694 
	C405.462067,73.425323 418.281738,64.017128 432.320404,56.401058 
	C459.448883,41.683655 488.404419,34.198414 519.484619,34.894497 
	C538.420654,35.318592 556.248657,39.043983 572.871033,48.368156 
	C592.277710,59.254169 605.925659,75.469246 615.429504,95.108109 
	C627.851624,120.777328 631.253601,148.507111 631.922180,176.638245 
	C632.102661,184.235779 631.469971,191.865219 630.951904,199.462357 
	C630.605774,204.537766 629.791687,209.580765 629.206421,214.640518 
	C628.503113,220.721466 627.820312,226.804810 627.027710,233.774399 
	C627.999695,232.522644 628.555298,232.075302 628.762268,231.502106 
	C638.547607,204.398605 650.412842,178.236298 664.469971,153.087204 
	C680.080994,125.158028 698.058716,98.958160 723.138855,78.585419 
	C733.934937,69.815788 745.289978,61.456551 757.339050,54.569225 
	C777.914246,42.808365 800.257141,35.911823 824.084595,33.876369 
	C841.167053,32.417091 858.252808,31.854738 875.027954,35.240417 
	C908.503662,41.996738 932.746460,61.405796 947.869446,91.856819 
	C958.868896,114.004829 963.279846,138.004852 963.740967,162.440659 
	C964.073792,180.075775 962.400879,197.790131 960.876282,215.404556 
	C959.830566,227.485519 958.019775,239.558517 955.647644,251.454941 
	C949.722473,281.170929 943.175415,310.762299 937.079346,340.445038 
	C931.211853,369.014954 925.670837,397.651764 919.852600,426.231934 
	C912.595520,461.879974 903.599609,497.181702 899.832764,533.506653 
	C898.052368,550.675842 896.756470,567.736938 900.032532,584.809448 
	C904.186890,606.458862 918.297852,624.098999 940.839050,629.160767 
	C959.548035,633.361938 977.184387,630.386108 994.093079,622.340698 
	C1009.906921,614.816345 1023.071472,603.601990 1035.411621,591.286560 
	C1038.513550,588.190796 1039.284912,585.085815 1039.008545,581.103394 
	C1038.264893,570.391113 1037.473633,559.675964 1037.085327,548.947937 
	C1036.913208,544.189575 1037.462036,539.372742 1038.040039,534.625916 
	C1039.508545,522.568054 1040.813965,510.472595 1042.856201,498.506714 
	C1045.652954,482.118591 1051.141724,466.549683 1057.756470,451.267700 
	C1066.137329,431.905273 1077.021484,414.166962 1091.095581,398.598999 
	C1107.608765,380.332916 1126.990967,365.803467 1149.648193,355.564240 
	C1169.915894,346.404907 1191.132324,342.171021 1213.099121,341.102539 
	C1219.842896,340.774567 1226.644531,341.692322 1233.421875,341.991913 
	C1249.401611,342.698303 1264.564453,346.891632 1278.953247,353.560913 
	C1300.582153,363.586090 1317.436646,379.416077 1330.892822,398.831451 
	C1349.007568,424.968781 1359.766113,453.940826 1362.995483,485.634827 
	C1363.241821,488.053009 1363.739380,488.803650 1366.698975,488.332306 
	C1377.729980,486.575562 1388.822388,485.015900 1399.951050,484.116455 
	C1409.542358,483.341217 1416.862793,480.606689 1417.976929,469.665985 
	C1417.993774,469.500336 1418.001343,469.328857 1418.050903,469.172089 
	C1426.345337,442.980286 1439.393188,419.286194 1457.216675,398.513580 
	C1474.749268,378.080048 1496.086304,362.303711 1520.919312,351.609222 
	C1537.477783,344.478302 1554.916138,340.179688 1572.843872,339.204041 
	C1588.333008,338.361084 1603.885864,338.501892 1619.312134,341.872284 
	C1639.993774,346.390961 1658.546509,355.035553 1674.341187,368.989044 
	C1693.804199,386.182861 1708.220825,407.095978 1718.086670,431.176178 
	C1724.404297,446.596252 1728.635742,462.560638 1730.895996,479.010315 
	C1731.871582,486.111176 1732.360352,487.100861 1739.408447,485.933167 
	C1757.036377,483.012573 1774.643677,479.968109 1792.260254,476.978729 
	C1794.609375,476.580078 1795.647705,475.561340 1796.123535,472.857391 
	C1798.707153,458.176025 1801.309448,443.478027 1804.633301,428.952362 
	C1808.028931,414.113068 1811.907104,399.360291 1816.220337,384.760620 
	C1822.453979,363.660736 1834.793823,348.100433 1856.840698,341.495178 
	C1871.116211,337.218201 1885.730957,337.121216 1900.157104,338.321991 
	C1912.654297,339.362122 1918.452271,343.024689 1917.751343,358.159424 
	C1917.246460,369.058289 1914.915527,379.955414 1912.562378,390.669556 
	C1906.589966,417.861847 1899.922119,444.901794 1893.997192,472.103943 
	C1891.418579,483.942566 1889.845703,496.009766 1888.086060,508.012726 
	C1887.354980,512.998718 1887.328857,518.088074 1886.982300,523.130432 
	C1888.714722,522.295654 1889.378418,521.363525 1889.818115,520.335571 
	C1894.656006,509.023987 1899.098755,497.527527 1904.346436,486.410553 
	C1915.028564,463.781158 1927.275757,442.003479 1942.093262,421.784027 
	C1957.294067,401.041534 1973.978516,381.556519 1994.614624,366.010315 
	C2020.291016,346.666992 2048.207764,333.309418 2081.659912,337.016144 
	C2092.946533,338.266785 2103.291504,342.270416 2110.939697,350.704742 
	C2119.300049,359.924683 2122.429443,371.655365 2122.933350,383.887054 
	C2123.691162,402.277344 2121.279297,420.440796 2118.041016,438.500244 
	C2115.091064,454.952118 2112.186523,471.413055 2109.083252,487.836273 
	C2106.527832,501.361267 2103.556152,514.808289 2101.052490,528.342285 
	C2098.368408,542.850159 2095.812500,557.388123 2093.578613,571.970886 
	C2091.659180,584.503662 2089.514893,597.068726 2091.988525,609.834290 
	C2094.943848,625.085388 2103.397949,631.993958 2115.878662,630.642517 
	C2122.929443,629.879028 2130.130859,626.561462 2136.350342,622.859070 
	C2150.854980,614.224670 2162.076172,601.588745 2173.736328,589.610291 
	C2176.616943,586.650940 2179.932617,583.088684 2180.700928,579.324463 
	C2182.074219,572.593994 2181.292236,565.456543 2182.085205,558.566833 
	C2183.266602,548.304321 2184.448486,537.980530 2186.664062,527.910339 
	C2192.482178,501.466156 2202.262207,476.518158 2215.486572,452.811371 
	C2226.875244,432.395782 2240.615723,413.797729 2256.717529,397.002594 
	C2264.000977,389.405884 2272.383545,382.833893 2280.482910,376.054230 
	C2298.295898,361.143463 2318.251709,349.870850 2340.118408,342.094025 
	C2361.531982,334.478333 2383.708496,331.738037 2406.334961,333.103485 
	C2413.404541,333.530090 2420.103516,335.864349 2423.442139,342.961365 
	C2426.623535,349.724213 2429.321777,356.714355 2432.252930,363.652802 
	C2434.553467,363.428314 2437.356201,363.358154 2440.078857,362.855194 
	C2454.363770,360.216064 2468.734375,360.007019 2483.031006,362.126648 
	C2492.986816,363.602783 2501.835449,367.585571 2505.516602,378.116943 
	C2507.525879,383.864380 2508.190430,389.691711 2507.161621,395.965454 
	C2505.539795,405.856903 2505.355957,415.980560 2503.817871,425.890167 
	C2501.178711,442.894226 2498.014648,459.817902 2494.977539,476.758575 
	C2492.114502,492.727081 2488.898682,508.635925 2486.273926,524.642456 
	C2484.174805,537.442627 2482.675293,550.343018 2481.014160,563.212402 
	C2479.941162,571.527161 2478.416260,579.854614 2478.265381,588.197632 
	C2478.111084,596.708862 2478.290771,605.516907 2480.309326,613.705750 
	C2483.064453,624.883850 2494.120361,630.045105 2505.256836,627.396423 
	C2517.264160,624.540649 2526.602051,617.224976 2535.153320,609.116455 
	C2546.603027,598.259766 2557.469238,586.760681 2568.188477,575.169800 
	C2575.336670,567.440063 2581.586670,558.885254 2588.624756,551.046204 
	C2593.900879,545.169556 2599.365967,539.289368 2605.594971,534.517334 
	C2608.555176,532.249451 2609.197510,530.386902 2608.939209,527.335388 
	C2608.285889,519.619019 2607.090332,511.901031 2607.097900,504.184662 
	C2607.127930,473.322540 2607.532959,442.460754 2607.804688,411.000000 
	C2606.530762,411.000000 2604.402344,410.889069 2602.288818,411.017883 
	C2587.602295,411.913208 2572.881836,413.167267 2558.331055,409.947754 
	C2546.766602,407.388947 2540.084717,401.842041 2536.963867,390.200745 
	C2534.027100,379.246216 2534.268555,368.171417 2536.239502,357.283020 
	C2538.009766,347.503357 2541.787598,338.295135 2550.915283,332.647461 
	C2557.698975,328.450073 2565.356445,327.193878 2573.108643,327.069244 
	C2587.908447,326.831268 2602.714844,327.000183 2617.553223,327.000183 
	C2618.105957,325.024353 2618.693359,323.481903 2618.959473,321.885773 
	C2621.090820,309.104736 2622.458496,296.149567 2625.396973,283.559784 
	C2631.424316,257.738953 2637.763428,231.966431 2644.925537,206.440994 
	C2654.970215,170.643097 2668.373779,136.094086 2686.239990,103.378181 
	C2700.456543,77.345238 2717.071777,53.149529 2738.764404,32.624023 
	C2750.009277,21.984186 2762.353027,13.163807 2776.615967,7.177998 
	C2782.277588,4.801821 2788.197510,3.040985 2794.000000,1.000008 
M1246.506226,538.004700 
	C1238.479126,529.327637 1232.583130,519.279846 1227.881226,508.525299 
	C1218.776489,487.700684 1214.341919,466.070770 1216.933716,443.251434 
	C1217.448608,438.718079 1217.508667,434.133087 1217.843262,428.479462 
	C1211.946655,429.186584 1206.319702,429.283691 1200.994141,430.600128 
	C1178.162476,436.244080 1164.409180,452.604279 1154.471069,472.381989 
	C1143.322388,494.569305 1140.952637,518.909851 1140.155518,543.295715 
	C1139.855469,552.476562 1141.144409,561.731323 1142.011963,570.923767 
	C1143.743408,589.266663 1149.374512,606.232361 1161.307495,620.553650 
	C1172.767334,634.307190 1187.359009,642.339478 1205.601562,639.776245 
	C1231.147217,636.186890 1247.320068,619.643555 1257.481812,597.370178 
	C1262.580078,586.195374 1264.526245,573.606323 1268.286377,561.780396 
	C1269.225952,558.825378 1268.172729,557.691895 1266.287720,556.029236 
	C1259.777710,550.286926 1253.424194,544.367310 1246.506226,538.004700 
M1522.100830,470.765900 
	C1522.055420,471.095978 1522.090210,471.464539 1521.953125,471.750671 
	C1514.025146,488.285522 1510.146240,506.016968 1509.311035,524.049072 
	C1508.547607,540.531067 1507.985596,557.130554 1510.805176,573.693298 
	C1514.103149,593.067261 1520.676270,610.408081 1535.467041,624.012573 
	C1546.146729,633.835815 1558.090698,638.888184 1573.034058,637.161133 
	C1592.313965,634.932861 1606.058838,624.774231 1617.155029,609.654419 
	C1628.351807,594.397522 1632.936523,576.686279 1636.801270,558.684937 
	C1637.099854,557.294800 1635.808228,555.052063 1634.586182,553.943481 
	C1631.060181,550.744812 1627.013062,548.120239 1623.489990,544.918701 
	C1611.467407,533.993225 1602.791626,520.713806 1595.938599,506.036041 
	C1587.629150,488.239227 1584.768921,469.331940 1584.169800,450.042938 
	C1583.924683,442.149689 1585.509399,434.199585 1586.297974,425.891571 
	C1574.990845,426.525055 1564.279785,428.236542 1554.493896,433.981232 
	C1539.883545,442.558167 1530.238647,455.485504 1522.100830,470.765900 
M2404.879639,425.223938 
	C2405.768799,420.138672 2406.658203,415.053375 2407.560791,409.891876 
	C2393.424316,409.669678 2380.374512,413.540161 2368.289795,420.067627 
	C2355.078125,427.203857 2343.637207,436.634979 2333.376221,447.850739 
	C2316.375488,466.433105 2305.015381,488.087952 2296.417969,511.352295 
	C2290.265381,528.001160 2286.330811,545.242432 2284.926025,563.034302 
	C2283.726318,578.231873 2282.609375,593.419128 2286.066650,608.440674 
	C2292.473389,636.275024 2323.790527,645.717590 2344.132812,627.399475 
	C2362.145264,611.179321 2371.472412,590.117737 2376.815430,567.228577 
	C2381.316162,547.948242 2384.329590,528.323547 2388.127686,508.875824 
	C2393.524902,481.238861 2399.036865,453.624359 2404.879639,425.223938 
M3595.792725,402.024658 
	C3594.188965,402.354980 3592.536865,402.536743 3590.989502,403.040466 
	C3582.909180,405.671173 3574.389160,407.462097 3566.889404,411.258728 
	C3551.118408,419.242462 3538.194092,430.945312 3526.827148,444.537231 
	C3512.609375,461.537994 3502.446045,480.688416 3494.855957,501.360443 
	C3487.569336,521.206177 3483.197266,541.568298 3481.765625,562.751648 
	C3480.866699,576.053284 3480.718506,589.062073 3483.996338,602.014954 
	C3490.154541,626.349792 3513.909668,637.161621 3534.568604,622.091003 
	C3546.611084,613.306030 3555.072021,601.403442 3560.729980,587.944092 
	C3566.361328,574.547729 3571.194824,560.690979 3574.923096,546.649719 
	C3580.000977,527.526611 3583.946533,508.087677 3587.910645,488.688812 
	C3591.157471,472.801727 3593.716797,456.774353 3596.589355,440.810760 
	C3598.896484,427.989075 3601.215820,415.169586 3603.591797,402.005920 
	C3600.981934,402.005920 3598.827393,402.005920 3595.792725,402.024658 
M2775.973389,92.549240 
	C2774.255859,95.535149 2772.482422,98.490318 2770.830322,101.512016 
	C2761.008301,119.474915 2754.187744,138.617844 2748.370850,158.182022 
	C2739.440918,188.214767 2732.561768,218.719116 2727.020996,249.535522 
	C2724.583740,263.089722 2722.276367,276.669434 2720.116211,290.270294 
	C2718.958496,297.559113 2718.238281,304.917419 2717.245850,312.842285 
	C2722.872803,307.714417 2728.309570,303.338989 2733.046875,298.305389 
	C2739.940186,290.980835 2746.454590,283.286407 2752.911621,275.566620 
	C2773.829834,250.556656 2788.447021,222.067078 2799.012451,191.377319 
	C2806.224609,170.428375 2810.989990,149.003632 2810.949463,126.731773 
	C2810.937256,119.955284 2810.935791,113.076958 2809.816650,106.432800 
	C2808.686768,99.728203 2806.906250,92.923561 2804.098633,86.760483 
	C2799.876221,77.490639 2791.177490,76.366661 2784.043945,83.501854 
	C2781.363037,86.183128 2778.989258,89.171509 2775.973389,92.549240 
z"/>
<path fill="#FFFFFF" opacity="1.000000" stroke="none" 
	d="
M0.999999,218.468658 
	C1.675352,219.191864 2.559327,220.312683 2.993171,221.586777 
	C6.575535,232.107483 12.119587,241.069855 23.117821,245.028610 
	C32.906921,248.552155 46.479576,243.537308 52.889290,235.549759 
	C65.357437,220.012405 78.240814,204.807434 91.002220,189.506500 
	C102.292885,175.968979 115.824127,164.917831 130.404831,155.214066 
	C142.217224,147.352661 154.826675,140.556564 169.207230,139.247910 
	C182.294998,138.056885 192.239532,142.889343 196.633667,158.701263 
	C200.107269,171.200760 199.926331,184.197708 198.128342,197.094849 
	C197.877182,198.896500 198.126633,200.762115 197.985306,202.585800 
	C196.698456,219.193497 195.502655,235.809723 194.023926,252.400604 
	C192.869644,265.351166 191.550217,278.294098 189.939682,291.194946 
	C188.252228,304.711853 186.085999,318.168427 184.211838,331.662842 
	C182.742599,342.241821 181.483780,352.850311 179.980316,363.424194 
	C177.854843,378.372589 175.580322,393.299744 173.387909,408.238708 
	C171.576294,420.582886 169.848602,432.939636 167.979172,445.274994 
	C165.938477,458.740356 163.822433,472.194794 161.656174,485.640564 
	C159.491211,499.078400 157.211533,512.497681 155.004166,525.928711 
	C152.717041,539.845093 150.313461,553.744446 148.230042,567.691467 
	C146.603455,578.580139 145.401367,589.531860 143.987579,600.452637 
	C142.701126,610.389771 141.239853,620.306946 140.134018,630.263855 
	C139.477692,636.173340 139.368362,642.143311 138.997345,648.085022 
	C138.698975,652.863403 138.016968,657.648926 138.132065,662.416199 
	C138.497437,677.551575 138.656952,692.710510 143.668549,707.321472 
	C148.067047,720.145081 157.168274,727.606384 169.857788,731.013367 
	C187.803146,735.831726 205.757004,735.682373 223.415466,729.724976 
	C235.043777,725.802063 240.977036,716.346130 244.964996,705.492554 
	C250.367874,690.788269 253.065277,675.484924 255.101303,659.985901 
	C257.751617,639.810730 260.728241,619.670837 263.999573,599.586609 
	C268.770355,570.296265 273.801392,541.046570 278.951782,511.820160 
	C286.293243,470.160583 296.081421,429.075562 307.713074,388.394653 
	C318.052307,352.233856 330.538971,316.883972 345.271729,282.294556 
	C357.021118,254.709381 370.225433,227.921921 387.823730,203.520874 
	C403.632782,181.600693 422.538727,162.986725 446.439484,149.906448 
	C460.838470,142.026245 476.347595,138.265503 492.647461,140.160309 
	C508.776550,142.035263 520.268250,150.784821 525.982300,166.390671 
	C529.529358,176.078278 531.530884,186.087921 530.936951,196.387543 
	C529.834473,215.504196 528.763489,234.638657 526.917480,253.691895 
	C525.095642,272.495728 522.642273,291.253998 519.894714,309.948273 
	C517.010010,329.574829 513.442444,349.100922 510.181763,368.672333 
	C507.108887,387.116821 504.183319,405.587189 500.940857,424.001740 
	C497.928589,441.108948 494.506165,458.143555 491.407501,475.236115 
	C488.511932,491.208191 485.738892,507.203339 483.033600,523.208923 
	C480.572968,537.767029 478.160767,552.335266 475.937561,566.931091 
	C473.490967,582.993347 471.333527,599.099426 468.961029,615.173218 
	C465.886444,636.004150 464.300934,656.950806 465.110901,677.982788 
	C465.571930,689.953369 467.254364,701.831116 473.134705,712.679138 
	C479.189056,723.848145 489.559418,728.706482 501.123077,730.740967 
	C513.510010,732.920410 526.046570,732.638184 538.561890,730.116150 
	C556.964111,726.407837 569.236328,715.562805 574.667297,698.115356 
	C578.881653,684.576355 581.397339,670.452332 583.890869,656.449890 
	C586.393311,642.397827 587.963867,628.178589 589.886597,614.024963 
	C591.633850,601.163330 593.150269,588.268433 595.051208,575.430054 
	C597.262024,560.498108 599.536072,545.567322 602.227356,530.716675 
	C605.557373,512.341736 609.022400,493.979126 613.011963,475.738647 
	C618.540283,450.462555 624.194702,425.199707 630.544800,400.120972 
	C640.819641,359.542145 654.475708,320.027252 670.423279,281.351898 
	C681.523743,254.431442 693.945129,228.023849 711.104065,204.355576 
	C720.363342,191.583740 730.639648,179.364670 741.728027,168.153183 
	C753.781555,155.965836 767.761108,145.977341 784.547852,140.746475 
	C795.674561,137.279327 806.896851,136.356903 818.062073,140.013214 
	C828.680542,143.490509 835.794495,151.114502 839.878784,161.288589 
	C843.258179,169.706497 844.609619,178.565674 845.166199,187.731125 
	C846.344666,207.138672 843.912781,226.124344 840.061523,244.998749 
	C833.544556,276.938263 826.813721,308.834259 820.133728,340.740387 
	C811.808289,380.505676 803.130249,420.200623 795.229980,460.049988 
	C791.404175,479.347473 788.714783,498.888275 786.060486,518.393738 
	C784.219238,531.924500 783.137390,545.568787 782.058777,559.189453 
	C781.379089,567.772156 780.702637,576.434998 781.112610,585.009827 
	C782.618774,616.511230 789.325195,646.556091 807.975586,672.840881 
	C825.877136,698.070312 849.621338,714.758728 879.582031,723.210449 
	C900.830261,729.204468 922.413025,730.129761 943.984253,728.736816 
	C970.011536,727.056030 994.305298,718.704407 1017.065308,705.641479 
	C1036.086670,694.724304 1052.706421,680.871765 1069.102173,665.724426 
	C1071.454102,668.714050 1073.704346,671.646423 1076.029419,674.518372 
	C1088.653931,690.111816 1103.810303,702.673035 1121.565552,711.999329 
	C1133.538452,718.288391 1146.234375,722.890259 1159.599609,724.822205 
	C1171.323853,726.516968 1183.245361,728.006592 1195.043579,727.772034 
	C1215.017090,727.375000 1234.461182,723.537903 1252.869873,715.110840 
	C1268.717651,707.856140 1282.836304,698.277893 1295.905273,686.758118 
	C1314.885376,670.027832 1329.186523,649.959351 1340.179199,627.402527 
	C1347.747437,611.872925 1353.116089,595.535645 1357.116943,578.726318 
	C1357.458496,577.291626 1359.376221,575.335938 1360.740479,575.179260 
	C1374.479126,573.601501 1388.254517,572.343201 1402.021851,571.017883 
	C1403.009399,570.922791 1404.014038,571.005432 1405.781372,571.005432 
	C1406.519653,575.806824 1407.357544,580.567871 1407.968872,585.357727 
	C1410.143921,602.400574 1415.184814,618.607727 1421.734131,634.438232 
	C1429.186523,652.451721 1439.542603,668.738892 1453.277832,682.319946 
	C1462.670776,691.607239 1473.611206,699.632568 1484.813843,706.712280 
	C1500.093018,716.367920 1517.395508,721.731506 1535.289185,723.766968 
	C1563.791870,727.009277 1591.807617,725.253662 1618.794678,713.778870 
	C1643.412231,703.311584 1663.667603,687.099426 1680.917236,667.286011 
	C1703.442749,641.412537 1717.184326,610.824646 1724.842773,577.515503 
	C1725.729492,573.658386 1727.413818,573.231812 1730.827515,572.878174 
	C1746.353638,571.270081 1761.836182,569.237427 1777.331421,567.334045 
	C1780.694214,566.921021 1784.045410,566.412048 1788.000000,565.864441 
	C1788.000000,576.261841 1787.869751,586.059204 1788.024292,595.852112 
	C1788.501099,626.055969 1789.910034,656.217712 1799.130737,685.268494 
	C1804.835815,703.242920 1814.295044,719.014832 1834.857056,722.173279 
	C1856.944214,725.565979 1879.636963,722.881470 1890.822144,697.060791 
	C1895.361694,686.581604 1899.125977,675.608154 1901.810791,664.513000 
	C1910.625732,628.084351 1921.853760,592.544006 1937.200562,558.287659 
	C1947.775757,534.682251 1959.308472,511.648163 1973.965698,490.296295 
	C1980.213013,481.195587 1986.481567,471.993195 1995.880737,465.699341 
	C2004.004272,460.259857 2009.725708,462.785950 2010.967163,472.356232 
	C2011.355469,475.349274 2011.209961,478.451691 2010.972290,481.477631 
	C2010.431030,488.370087 2010.001587,495.295471 2008.950195,502.118652 
	C2006.777466,516.219421 2004.219482,530.260681 2001.836548,544.329285 
	C1999.208496,559.846313 1996.776245,575.399048 1993.932373,590.876282 
	C1990.980469,606.941223 1990.474854,623.138611 1991.077393,639.357971 
	C1991.804443,658.930115 1996.570068,677.516846 2008.337646,693.491821 
	C2019.483643,708.623047 2035.041504,717.194397 2053.523193,719.881958 
	C2062.968994,721.255493 2072.641846,722.228516 2082.143799,721.815918 
	C2102.598633,720.927612 2122.424561,716.748962 2141.337891,708.390076 
	C2159.916992,700.178833 2175.943848,688.324463 2191.245117,675.274719 
	C2193.994873,672.929443 2196.818115,670.670288 2199.154785,668.744507 
	C2205.791260,676.684937 2211.921143,685.118958 2219.163086,692.454834 
	C2234.208496,707.695374 2252.735596,716.349854 2274.014648,719.022278 
	C2291.229492,721.184265 2308.373291,720.882996 2325.043457,715.804443 
	C2338.162109,711.807617 2350.190674,705.405212 2360.875977,696.641907 
	C2375.941650,684.285950 2388.472412,669.732361 2399.075195,652.509033 
	C2400.705078,656.001099 2402.162354,659.000732 2403.516602,662.046387 
	C2411.481934,679.960022 2423.380859,694.715637 2439.480713,705.870728 
	C2450.893555,713.778503 2463.628174,718.295349 2477.626465,719.014221 
	C2506.326416,720.488098 2530.887939,709.494629 2552.715088,692.420654 
	C2568.823486,679.820129 2583.873291,665.770874 2598.627686,651.570068 
	C2607.621094,642.914307 2615.182373,632.766296 2623.327881,623.238220 
	C2624.597656,621.753113 2625.552002,619.998657 2626.496826,618.599060 
	C2633.516113,631.464294 2639.163086,643.547241 2646.340820,654.640076 
	C2666.560059,685.888123 2695.541992,704.714783 2731.678467,713.032898 
	C2750.934814,717.465454 2770.514893,718.172974 2789.945801,716.742737 
	C2822.889648,714.317871 2853.074463,703.386414 2879.447266,683.011719 
	C2889.345947,675.364502 2899.058105,667.476196 2908.982910,659.596863 
	C2912.400879,665.858093 2915.564209,672.769409 2919.706299,679.033508 
	C2932.777100,698.801453 2951.453857,709.918884 2974.682129,714.055115 
	C3007.032227,719.815735 3036.230225,711.750488 3063.692383,694.892578 
	C3077.508789,686.411438 3090.275635,676.660583 3102.026855,665.516418 
	C3106.089844,661.663330 3110.408936,658.080505 3114.669922,654.322144 
	C3117.776855,657.717468 3120.990723,661.047485 3124.002197,664.551392 
	C3137.341553,680.071106 3153.754639,691.148560 3172.447510,699.320679 
	C3186.558105,705.489502 3201.195801,709.973877 3216.316895,711.671326 
	C3232.573486,713.496216 3249.122314,714.558472 3265.425781,713.703979 
	C3291.985596,712.312012 3317.370605,705.067261 3341.935059,694.684448 
	C3360.501221,686.836853 3377.891846,677.065186 3394.502197,665.773254 
	C3395.701904,664.957642 3396.747070,663.914551 3398.083252,662.793335 
	C3419.381592,696.487732 3448.560791,714.474915 3489.359619,712.232910 
	C3531.662354,709.908142 3554.132568,683.908142 3570.000000,648.273071 
	C3570.000000,652.633423 3569.999268,656.993774 3570.000244,661.354126 
	C3570.003174,674.965210 3573.596191,687.516541 3582.601807,697.827148 
	C3588.099365,704.121460 3595.772949,707.594910 3603.935059,709.426147 
	C3620.818604,713.214111 3637.538086,712.945801 3653.859863,706.582886 
	C3667.473633,701.275574 3674.033936,690.344604 3676.951416,676.809082 
	C3680.701660,659.410278 3678.358643,641.728088 3679.015869,624.182251 
	C3679.610840,608.292053 3679.891113,592.371887 3681.125977,576.528564 
	C3682.660889,556.838013 3684.454834,537.131836 3687.187012,517.579163 
	C3690.908936,490.945068 3696.066650,464.510986 3699.746582,437.872040 
	C3701.999268,421.563599 3703.197754,405.054260 3703.848389,388.594757 
	C3704.550293,370.835205 3695.072998,357.925476 3677.873047,354.750427 
	C3667.655518,352.864319 3656.875977,353.793701 3646.352783,353.890991 
	C3640.971436,353.940765 3635.598389,354.944977 3629.378906,355.607605 
	C3628.384766,352.680206 3627.177979,349.234863 3626.043213,345.765930 
	C3620.745850,329.573303 3614.480225,325.383392 3597.585938,324.916809 
	C3566.493408,324.058075 3537.574951,331.785706 3510.400879,346.348541 
	C3495.147949,354.522583 3481.296143,364.768005 3468.177002,376.147278 
	C3450.048828,391.871460 3434.980957,410.068665 3421.984131,430.098511 
	C3403.845215,458.053772 3390.801514,488.215881 3384.149902,520.893555 
	C3381.601562,533.412415 3380.539551,546.244812 3379.052490,558.963867 
	C3378.381836,564.701172 3378.513184,570.531067 3377.881348,576.275024 
	C3377.690430,578.010559 3376.532715,580.038574 3375.183350,581.188110 
	C3353.968506,599.263428 3330.599121,613.741516 3303.984863,622.445496 
	C3290.083740,626.991699 3275.682129,629.007446 3261.055664,627.932251 
	C3242.961670,626.602112 3226.061035,621.554199 3212.514648,608.835754 
	C3205.016357,601.795837 3199.636719,593.042725 3195.992188,583.349182 
	C3190.247314,568.068542 3188.108398,552.231628 3187.888916,535.933960 
	C3187.658691,518.824463 3188.971924,501.889954 3193.190430,485.381592 
	C3198.093750,466.193970 3205.322266,447.979156 3218.051514,432.244934 
	C3226.303711,422.045166 3235.830566,413.956787 3248.662598,410.905762 
	C3257.269287,408.859436 3266.421631,408.012482 3272.671631,416.401611 
	C3274.883545,419.370483 3276.340576,423.349762 3276.859131,427.047546 
	C3278.333252,437.565796 3274.935547,447.549774 3272.812500,457.713379 
	C3271.174316,465.555725 3270.072021,473.694214 3270.204590,481.676575 
	C3270.378906,492.179352 3277.075439,499.115997 3286.445068,502.558411 
	C3297.777832,506.721954 3309.432373,507.098541 3321.041260,502.558014 
	C3331.903320,498.309631 3339.141113,490.284882 3345.048828,480.738220 
	C3355.031494,464.605865 3358.638672,446.840485 3359.095215,428.067139 
	C3359.556641,409.103516 3357.035156,390.872070 3347.960449,374.008820 
	C3335.443848,350.748322 3316.260742,335.779663 3290.221924,331.128265 
	C3246.974609,323.402954 3207.609131,333.751373 3171.799561,358.716797 
	C3153.738037,371.308746 3138.509766,386.714111 3125.831787,404.682220 
	C3112.391602,423.730286 3101.752686,444.193054 3094.816406,466.492065 
	C3089.834473,482.507751 3086.063232,498.794067 3085.011230,515.591858 
	C3084.225586,528.136902 3083.317627,540.690857 3083.133057,553.250671 
	C3083.027344,560.450073 3084.314941,567.665039 3084.829590,574.883484 
	C3084.914551,576.076355 3084.630859,577.676270 3083.874512,578.492004 
	C3070.606445,592.804688 3057.861084,607.747681 3041.111084,618.253479 
	C3031.625732,624.202942 3021.565430,627.850037 3010.517090,621.808777 
	C3001.795410,617.039795 2998.927490,608.476440 2997.132568,599.769043 
	C2993.489502,582.095886 2994.674316,564.330383 2996.848389,546.495178 
	C3001.339844,509.646820 3009.429688,473.493927 3016.751709,437.173309 
	C3020.509521,418.533051 3023.101562,399.651550 3025.960205,380.839539 
	C3027.021973,373.851013 3027.572998,366.762207 3027.954590,359.697418 
	C3028.916992,341.884216 3018.828125,335.016876 3005.911133,332.277344 
	C2988.464600,328.577118 2971.002197,329.058990 2954.014404,335.839783 
	C2944.904785,339.476044 2938.666748,346.267822 2935.416504,354.658997 
	C2929.458740,370.039490 2924.014404,385.778259 2920.245605,401.811737 
	C2913.764160,429.384827 2908.378418,457.233429 2903.241455,485.097015 
	C2900.682861,498.974731 2899.530029,513.124512 2898.044678,527.183167 
	C2896.797852,538.985474 2896.056396,550.840576 2894.917480,562.655518 
	C2894.754883,564.339050 2894.016357,566.333801 2892.856201,567.499023 
	C2877.674316,582.746582 2863.085449,598.674194 2844.924316,610.606934 
	C2829.552002,620.707336 2812.668701,625.649475 2794.260254,626.084045 
	C2781.173340,626.393005 2768.576172,624.729309 2756.795898,618.902527 
	C2740.457764,610.821167 2729.816406,597.390320 2723.141846,580.855164 
	C2715.967285,563.082214 2713.044434,544.299622 2710.893555,525.315308 
	C2707.821533,498.201447 2707.822998,471.017151 2708.066895,443.818542 
	C2708.163330,433.080841 2709.000488,422.349762 2709.515381,411.284698 
	C2710.414551,411.195557 2711.366211,411.027191 2712.319092,411.017365 
	C2746.095947,410.669006 2779.874268,410.442474 2813.649170,409.958252 
	C2832.651611,409.685791 2851.418701,407.705811 2869.134521,400.050049 
	C2886.121826,392.709015 2897.960938,381.052551 2899.911133,361.795319 
	C2900.600342,354.990265 2900.998535,347.847778 2899.702881,341.216339 
	C2897.299561,328.917999 2890.535645,325.261383 2876.736816,325.161377 
	C2848.630371,324.957611 2820.517578,325.668091 2792.407227,325.997253 
	C2790.602295,326.018402 2788.796875,326.000000 2787.937012,326.000000 
	C2792.580811,320.897156 2797.354004,315.297546 2802.497803,310.061798 
	C2823.391357,288.794830 2841.369385,265.383057 2855.973389,239.335571 
	C2869.913818,214.470642 2879.096191,187.892731 2884.792480,160.121765 
	C2889.577637,136.793106 2890.212646,113.005196 2888.756836,89.367432 
	C2887.378662,66.987541 2880.951416,45.760323 2867.976318,27.026163 
	C2859.582031,14.905890 2848.686279,5.950205 2834.167480,1.326267 
	C3125.644775,1.000000 3417.289795,1.000000 3708.967285,1.000000 
	C3708.967285,247.626419 3708.967285,494.252838 3708.967285,740.939636 
	C2473.000000,740.939636 1237.000000,740.939636 1.000000,740.939636 
	C1.000000,566.911011 1.000000,392.924164 0.999999,218.468658 
M3070.530029,241.919479 
	C3078.957275,224.918304 3081.384277,206.933029 3076.601074,188.729630 
	C3071.963135,171.078903 3059.383545,160.069260 3042.382568,153.985474 
	C3024.792480,147.690887 3006.745605,147.267105 2988.766113,151.149216 
	C2966.145264,156.033493 2948.320312,168.256836 2937.521973,189.148270 
	C2930.491699,202.749130 2930.490967,217.574890 2933.098389,232.217468 
	C2936.927246,253.717834 2951.125977,268.300201 2971.734863,273.949097 
	C2986.787598,278.075043 3002.142822,278.041260 3017.464600,275.954895 
	C3040.052002,272.879181 3058.096924,262.409058 3070.530029,241.919479 
z"/>
<path fill="#FFFFFF" opacity="1.000000" stroke="none" 
	d="
M2793.531250,1.000008 
	C2788.197510,3.040985 2782.277588,4.801821 2776.615967,7.177998 
	C2762.353027,13.163807 2750.009277,21.984186 2738.764404,32.624023 
	C2717.071777,53.149529 2700.456543,77.345238 2686.239990,103.378181 
	C2668.373779,136.094086 2654.970215,170.643097 2644.925537,206.440994 
	C2637.763428,231.966431 2631.424316,257.738953 2625.396973,283.559784 
	C2622.458496,296.149567 2621.090820,309.104736 2618.959473,321.885773 
	C2618.693359,323.481903 2618.105957,325.024353 2617.553223,327.000183 
	C2602.714844,327.000183 2587.908447,326.831268 2573.108643,327.069244 
	C2565.356445,327.193878 2557.698975,328.450073 2550.915283,332.647461 
	C2541.787598,338.295135 2538.009766,347.503357 2536.239502,357.283020 
	C2534.268555,368.171417 2534.027100,379.246216 2536.963867,390.200745 
	C2540.084717,401.842041 2546.766602,407.388947 2558.331055,409.947754 
	C2572.881836,413.167267 2587.602295,411.913208 2602.288818,411.017883 
	C2604.402344,410.889069 2606.530762,411.000000 2607.804688,411.000000 
	C2607.532959,442.460754 2607.127930,473.322540 2607.097900,504.184662 
	C2607.090332,511.901031 2608.285889,519.619019 2608.939209,527.335388 
	C2609.197510,530.386902 2608.555176,532.249451 2605.594971,534.517334 
	C2599.365967,539.289368 2593.900879,545.169556 2588.624756,551.046204 
	C2581.586670,558.885254 2575.336670,567.440063 2568.188477,575.169800 
	C2557.469238,586.760681 2546.603027,598.259766 2535.153320,609.116455 
	C2526.602051,617.224976 2517.264160,624.540649 2505.256836,627.396423 
	C2494.120361,630.045105 2483.064453,624.883850 2480.309326,613.705750 
	C2478.290771,605.516907 2478.111084,596.708862 2478.265381,588.197632 
	C2478.416260,579.854614 2479.941162,571.527161 2481.014160,563.212402 
	C2482.675293,550.343018 2484.174805,537.442627 2486.273926,524.642456 
	C2488.898682,508.635925 2492.114502,492.727081 2494.977539,476.758575 
	C2498.014648,459.817902 2501.178711,442.894226 2503.817871,425.890167 
	C2505.355957,415.980560 2505.539795,405.856903 2507.161621,395.965454 
	C2508.190430,389.691711 2507.525879,383.864380 2505.516602,378.116943 
	C2501.835449,367.585571 2492.986816,363.602783 2483.031006,362.126648 
	C2468.734375,360.007019 2454.363770,360.216064 2440.078857,362.855194 
	C2437.356201,363.358154 2434.553467,363.428314 2432.252930,363.652802 
	C2429.321777,356.714355 2426.623535,349.724213 2423.442139,342.961365 
	C2420.103516,335.864349 2413.404541,333.530090 2406.334961,333.103485 
	C2383.708496,331.738037 2361.531982,334.478333 2340.118408,342.094025 
	C2318.251709,349.870850 2298.295898,361.143463 2280.482910,376.054230 
	C2272.383545,382.833893 2264.000977,389.405884 2256.717529,397.002594 
	C2240.615723,413.797729 2226.875244,432.395782 2215.486572,452.811371 
	C2202.262207,476.518158 2192.482178,501.466156 2186.664062,527.910339 
	C2184.448486,537.980530 2183.266602,548.304321 2182.085205,558.566833 
	C2181.292236,565.456543 2182.074219,572.593994 2180.700928,579.324463 
	C2179.932617,583.088684 2176.616943,586.650940 2173.736328,589.610291 
	C2162.076172,601.588745 2150.854980,614.224670 2136.350342,622.859070 
	C2130.130859,626.561462 2122.929443,629.879028 2115.878662,630.642517 
	C2103.397949,631.993958 2094.943848,625.085388 2091.988525,609.834290 
	C2089.514893,597.068726 2091.659180,584.503662 2093.578613,571.970886 
	C2095.812500,557.388123 2098.368408,542.850159 2101.052490,528.342285 
	C2103.556152,514.808289 2106.527832,501.361267 2109.083252,487.836273 
	C2112.186523,471.413055 2115.091064,454.952118 2118.041016,438.500244 
	C2121.279297,420.440796 2123.691162,402.277344 2122.933350,383.887054 
	C2122.429443,371.655365 2119.300049,359.924683 2110.939697,350.704742 
	C2103.291504,342.270416 2092.946533,338.266785 2081.659912,337.016144 
	C2048.207764,333.309418 2020.291016,346.666992 1994.614624,366.010315 
	C1973.978516,381.556519 1957.294067,401.041534 1942.093262,421.784027 
	C1927.275757,442.003479 1915.028564,463.781158 1904.346436,486.410553 
	C1899.098755,497.527527 1894.656006,509.023987 1889.818115,520.335571 
	C1889.378418,521.363525 1888.714722,522.295654 1886.982300,523.130432 
	C1887.328857,518.088074 1887.354980,512.998718 1888.086060,508.012726 
	C1889.845703,496.009766 1891.418579,483.942566 1893.997192,472.103943 
	C1899.922119,444.901794 1906.589966,417.861847 1912.562378,390.669556 
	C1914.915527,379.955414 1917.246460,369.058289 1917.751343,358.159424 
	C1918.452271,343.024689 1912.654297,339.362122 1900.157104,338.321991 
	C1885.730957,337.121216 1871.116211,337.218201 1856.840698,341.495178 
	C1834.793823,348.100433 1822.453979,363.660736 1816.220337,384.760620 
	C1811.907104,399.360291 1808.028931,414.113068 1804.633301,428.952362 
	C1801.309448,443.478027 1798.707153,458.176025 1796.123535,472.857391 
	C1795.647705,475.561340 1794.609375,476.580078 1792.260254,476.978729 
	C1774.643677,479.968109 1757.036377,483.012573 1739.408447,485.933167 
	C1732.360352,487.100861 1731.871582,486.111176 1730.895996,479.010315 
	C1728.635742,462.560638 1724.404297,446.596252 1718.086670,431.176178 
	C1708.220825,407.095978 1693.804199,386.182861 1674.341187,368.989044 
	C1658.546509,355.035553 1639.993774,346.390961 1619.312134,341.872284 
	C1603.885864,338.501892 1588.333008,338.361084 1572.843872,339.204041 
	C1554.916138,340.179688 1537.477783,344.478302 1520.919312,351.609222 
	C1496.086304,362.303711 1474.749268,378.080048 1457.216675,398.513580 
	C1439.393188,419.286194 1426.345337,442.980286 1418.050903,469.172089 
	C1418.001343,469.328857 1417.993774,469.500336 1417.976929,469.665985 
	C1416.862793,480.606689 1409.542358,483.341217 1399.951050,484.116455 
	C1388.822388,485.015900 1377.729980,486.575562 1366.698975,488.332306 
	C1363.739380,488.803650 1363.241821,488.053009 1362.995483,485.634827 
	C1359.766113,453.940826 1349.007568,424.968781 1330.892822,398.831451 
	C1317.436646,379.416077 1300.582153,363.586090 1278.953247,353.560913 
	C1264.564453,346.891632 1249.401611,342.698303 1233.421875,341.991913 
	C1226.644531,341.692322 1219.842896,340.774567 1213.099121,341.102539 
	C1191.132324,342.171021 1169.915894,346.404907 1149.648193,355.564240 
	C1126.990967,365.803467 1107.608765,380.332916 1091.095581,398.598999 
	C1077.021484,414.166962 1066.137329,431.905273 1057.756470,451.267700 
	C1051.141724,466.549683 1045.652954,482.118591 1042.856201,498.506714 
	C1040.813965,510.472595 1039.508545,522.568054 1038.040039,534.625916 
	C1037.462036,539.372742 1036.913208,544.189575 1037.085327,548.947937 
	C1037.473633,559.675964 1038.264893,570.391113 1039.008545,581.103394 
	C1039.284912,585.085815 1038.513550,588.190796 1035.411621,591.286560 
	C1023.071472,603.601990 1009.906921,614.816345 994.093079,622.340698 
	C977.184387,630.386108 959.548035,633.361938 940.839050,629.160767 
	C918.297852,624.098999 904.186890,606.458862 900.032532,584.809448 
	C896.756470,567.736938 898.052368,550.675842 899.832764,533.506653 
	C903.599609,497.181702 912.595520,461.879974 919.852600,426.231934 
	C925.670837,397.651764 931.211853,369.014954 937.079346,340.445038 
	C943.175415,310.762299 949.722473,281.170929 955.647644,251.454941 
	C958.019775,239.558517 959.830566,227.485519 960.876282,215.404556 
	C962.400879,197.790131 964.073792,180.075775 963.740967,162.440659 
	C963.279846,138.004852 958.868896,114.004829 947.869446,91.856819 
	C932.746460,61.405796 908.503662,41.996738 875.027954,35.240417 
	C858.252808,31.854738 841.167053,32.417091 824.084595,33.876369 
	C800.257141,35.911823 777.914246,42.808365 757.339050,54.569225 
	C745.289978,61.456551 733.934937,69.815788 723.138855,78.585419 
	C698.058716,98.958160 680.080994,125.158028 664.469971,153.087204 
	C650.412842,178.236298 638.547607,204.398605 628.762268,231.502106 
	C628.555298,232.075302 627.999695,232.522644 627.027710,233.774399 
	C627.820312,226.804810 628.503113,220.721466 629.206421,214.640518 
	C629.791687,209.580765 630.605774,204.537766 630.951904,199.462357 
	C631.469971,191.865219 632.102661,184.235779 631.922180,176.638245 
	C631.253601,148.507111 627.851624,120.777328 615.429504,95.108109 
	C605.925659,75.469246 592.277710,59.254169 572.871033,48.368156 
	C556.248657,39.043983 538.420654,35.318592 519.484619,34.894497 
	C488.404419,34.198414 459.448883,41.683655 432.320404,56.401058 
	C418.281738,64.017128 405.462067,73.425323 393.339447,83.959694 
	C369.846375,104.374763 352.352966,129.279587 336.967224,155.970306 
	C320.091522,185.245697 306.822601,216.146713 294.964783,247.706848 
	C293.260986,252.241669 291.505859,256.757202 289.168213,261.074646 
	C290.465240,252.184982 291.733978,243.291061 293.066681,234.406738 
	C294.673004,223.698563 296.874939,213.047684 297.852509,202.284225 
	C299.614197,182.887146 301.758209,163.421585 301.702118,143.990509 
	C301.641296,122.924263 298.454346,101.957619 288.851624,82.748413 
	C277.112366,59.265404 258.411438,44.343666 232.457764,39.049191 
	C218.888092,36.281013 205.252808,36.607464 191.498184,37.854832 
	C166.619476,40.111019 143.638992,48.292908 122.294945,60.602882 
	C108.558891,68.525024 95.644997,78.031952 83.053162,87.725594 
	C73.903648,94.769196 65.328781,102.766090 57.473869,111.242538 
	C39.787754,130.328110 23.010054,150.264465 11.025113,173.565781 
	C7.334107,180.741882 5.604469,188.924591 2.935274,196.632019 
	C2.677276,197.376999 2.124673,198.019928 1.354411,198.855118 
	C1.000000,133.009659 1.000000,67.019310 1.000000,1.000000 
	C931.687500,1.000000 1862.375000,1.000000 2793.531250,1.000008 
M2535.511963,129.940598 
	C2536.029541,129.102966 2536.511475,128.240982 2537.069824,127.431442 
	C2546.109863,114.321060 2552.028320,100.352364 2552.139648,83.922348 
	C2552.327881,56.096008 2528.046143,33.753819 2501.350098,33.051765 
	C2476.508301,32.398476 2461.375732,45.652214 2452.086426,66.928833 
	C2447.886719,76.548882 2443.819824,86.227257 2439.587402,95.832771 
	C2431.843750,113.406021 2423.975586,130.924408 2416.243896,148.502991 
	C2406.930420,169.678345 2397.647217,190.867493 2388.467041,212.100769 
	C2384.108643,222.180588 2379.524902,232.204636 2375.924072,242.560150 
	C2370.812500,257.259766 2377.241455,271.747284 2391.056152,278.547119 
	C2404.272705,285.052551 2420.992920,279.882233 2430.793457,266.591003 
	C2439.852539,254.305450 2449.174561,242.212799 2458.436768,230.078033 
	C2471.388428,213.110062 2484.368652,196.163757 2497.379395,179.241226 
	C2509.895752,162.961655 2522.466797,146.724243 2535.511963,129.940598 
z"/>
<path fill="#FFFFFF" opacity="1.000000" stroke="none" 
	d="
M1.000000,202.463181 
	C1.239316,206.179855 1.478632,210.359726 1.358974,214.769791 
	C1.000000,210.975449 1.000000,206.950912 1.000000,202.463181 
z"/>
<path fill="#FFFFFF" opacity="1.000000" stroke="none" 
	d="
M1246.758667,538.259949 
	C1253.424194,544.367310 1259.777710,550.286926 1266.287720,556.029236 
	C1268.172729,557.691895 1269.225952,558.825378 1268.286377,561.780396 
	C1264.526245,573.606323 1262.580078,586.195374 1257.481812,597.370178 
	C1247.320068,619.643555 1231.147217,636.186890 1205.601562,639.776245 
	C1187.359009,642.339478 1172.767334,634.307190 1161.307495,620.553650 
	C1149.374512,606.232361 1143.743408,589.266663 1142.011963,570.923767 
	C1141.144409,561.731323 1139.855469,552.476562 1140.155518,543.295715 
	C1140.952637,518.909851 1143.322388,494.569305 1154.471069,472.381989 
	C1164.409180,452.604279 1178.162476,436.244080 1200.994141,430.600128 
	C1206.319702,429.283691 1211.946655,429.186584 1217.843262,428.479462 
	C1217.508667,434.133087 1217.448608,438.718079 1216.933716,443.251434 
	C1214.341919,466.070770 1218.776489,487.700684 1227.881226,508.525299 
	C1232.583130,519.279846 1238.479126,529.327637 1246.758667,538.259949 
z"/>
<path fill="#FFFFFF" opacity="1.000000" stroke="none" 
	d="
M1522.271851,470.424072 
	C1530.238647,455.485504 1539.883545,442.558167 1554.493896,433.981232 
	C1564.279785,428.236542 1574.990845,426.525055 1586.297974,425.891571 
	C1585.509399,434.199585 1583.924683,442.149689 1584.169800,450.042938 
	C1584.768921,469.331940 1587.629150,488.239227 1595.938599,506.036041 
	C1602.791626,520.713806 1611.467407,533.993225 1623.489990,544.918701 
	C1627.013062,548.120239 1631.060181,550.744812 1634.586182,553.943481 
	C1635.808228,555.052063 1637.099854,557.294800 1636.801270,558.684937 
	C1632.936523,576.686279 1628.351807,594.397522 1617.155029,609.654419 
	C1606.058838,624.774231 1592.313965,634.932861 1573.034058,637.161133 
	C1558.090698,638.888184 1546.146729,633.835815 1535.467041,624.012573 
	C1520.676270,610.408081 1514.103149,593.067261 1510.805176,573.693298 
	C1507.985596,557.130554 1508.547607,540.531067 1509.311035,524.049072 
	C1510.146240,506.016968 1514.025146,488.285522 1521.953125,471.750671 
	C1522.090210,471.464539 1522.055420,471.095978 1522.271851,470.424072 
z"/>
<path fill="#FFFFFF" opacity="1.000000" stroke="none" 
	d="
M2404.689941,425.612122 
	C2399.036865,453.624359 2393.524902,481.238861 2388.127686,508.875824 
	C2384.329590,528.323547 2381.316162,547.948242 2376.815430,567.228577 
	C2371.472412,590.117737 2362.145264,611.179321 2344.132812,627.399475 
	C2323.790527,645.717590 2292.473389,636.275024 2286.066650,608.440674 
	C2282.609375,593.419128 2283.726318,578.231873 2284.926025,563.034302 
	C2286.330811,545.242432 2290.265381,528.001160 2296.417969,511.352295 
	C2305.015381,488.087952 2316.375488,466.433105 2333.376221,447.850739 
	C2343.637207,436.634979 2355.078125,427.203857 2368.289795,420.067627 
	C2380.374512,413.540161 2393.424316,409.669678 2407.560791,409.891876 
	C2406.658203,415.053375 2405.768799,420.138672 2404.689941,425.612122 
z"/>
<path fill="#FFFFFF" opacity="1.000000" stroke="none" 
	d="
M3596.232910,402.015289 
	C3598.827393,402.005920 3600.981934,402.005920 3603.591797,402.005920 
	C3601.215820,415.169586 3598.896484,427.989075 3596.589355,440.810760 
	C3593.716797,456.774353 3591.157471,472.801727 3587.910645,488.688812 
	C3583.946533,508.087677 3580.000977,527.526611 3574.923096,546.649719 
	C3571.194824,560.690979 3566.361328,574.547729 3560.729980,587.944092 
	C3555.072021,601.403442 3546.611084,613.306030 3534.568604,622.091003 
	C3513.909668,637.161621 3490.154541,626.349792 3483.996338,602.014954 
	C3480.718506,589.062073 3480.866699,576.053284 3481.765625,562.751648 
	C3483.197266,541.568298 3487.569336,521.206177 3494.855957,501.360443 
	C3502.446045,480.688416 3512.609375,461.537994 3526.827148,444.537231 
	C3538.194092,430.945312 3551.118408,419.242462 3566.889404,411.258728 
	C3574.389160,407.462097 3582.909180,405.671173 3590.989502,403.040466 
	C3592.536865,402.536743 3594.188965,402.354980 3596.232910,402.015289 
z"/>
<path fill="#FFFFFF" opacity="1.000000" stroke="none" 
	d="
M2776.224365,92.284546 
	C2778.989258,89.171509 2781.363037,86.183128 2784.043945,83.501854 
	C2791.177490,76.366661 2799.876221,77.490639 2804.098633,86.760483 
	C2806.906250,92.923561 2808.686768,99.728203 2809.816650,106.432800 
	C2810.935791,113.076958 2810.937256,119.955284 2810.949463,126.731773 
	C2810.989990,149.003632 2806.224609,170.428375 2799.012451,191.377319 
	C2788.447021,222.067078 2773.829834,250.556656 2752.911621,275.566620 
	C2746.454590,283.286407 2739.940186,290.980835 2733.046875,298.305389 
	C2728.309570,303.338989 2722.872803,307.714417 2717.245850,312.842285 
	C2718.238281,304.917419 2718.958496,297.559113 2720.116211,290.270294 
	C2722.276367,276.669434 2724.583740,263.089722 2727.020996,249.535522 
	C2732.561768,218.719116 2739.440918,188.214767 2748.370850,158.182022 
	C2754.187744,138.617844 2761.008301,119.474915 2770.830322,101.512016 
	C2772.482422,98.490318 2774.255859,95.535149 2776.224365,92.284546 
z"/>
<path fill="#966CA9" opacity="1.000000" stroke="none" 
	d="
M3070.276367,242.194061 
	C3058.096924,262.409058 3040.052002,272.879181 3017.464600,275.954895 
	C3002.142822,278.041260 2986.787598,278.075043 2971.734863,273.949097 
	C2951.125977,268.300201 2936.927246,253.717834 2933.098389,232.217468 
	C2930.490967,217.574890 2930.491699,202.749130 2937.521973,189.148270 
	C2948.320312,168.256836 2966.145264,156.033493 2988.766113,151.149216 
	C3006.745605,147.267105 3024.792480,147.690887 3042.382568,153.985474 
	C3059.383545,160.069260 3071.963135,171.078903 3076.601074,188.729630 
	C3081.384277,206.933029 3078.957275,224.918304 3070.276367,242.194061 
z"/>
<path fill="#966CA9" opacity="1.000000" stroke="none" 
	d="
M2535.262939,130.204437 
	C2522.466797,146.724243 2509.895752,162.961655 2497.379395,179.241226 
	C2484.368652,196.163757 2471.388428,213.110062 2458.436768,230.078033 
	C2449.174561,242.212799 2439.852539,254.305450 2430.793457,266.591003 
	C2420.992920,279.882233 2404.272705,285.052551 2391.056152,278.547119 
	C2377.241455,271.747284 2370.812500,257.259766 2375.924072,242.560150 
	C2379.524902,232.204636 2384.108643,222.180588 2388.467041,212.100769 
	C2397.647217,190.867493 2406.930420,169.678345 2416.243896,148.502991 
	C2423.975586,130.924408 2431.843750,113.406021 2439.587402,95.832771 
	C2443.819824,86.227257 2447.886719,76.548882 2452.086426,66.928833 
	C2461.375732,45.652214 2476.508301,32.398476 2501.350098,33.051765 
	C2528.046143,33.753819 2552.327881,56.096008 2552.139648,83.922348 
	C2552.028320,100.352364 2546.109863,114.321060 2537.069824,127.431442 
	C2536.511475,128.240982 2536.029541,129.102966 2535.262939,130.204437 
z"/>
</svg>